<?xml version="1.0" standalone="no"?>
<!DOCTYPE svg PUBLIC "-//W3C//DTD SVG 1.1//EN" "http://www.w3.org/Graphics/SVG/1.1/DTD/svg11.dtd" >
<svg xmlns="http://www.w3.org/2000/svg" xmlns:xlink="http://www.w3.org/1999/xlink" version="1.1">
<metadata></metadata>
<defs>
<font id="fzhanzhenguangbiaos-gbregular" horiz-adv-x="2048" vert-adv-y="2048" >
<font-face units-per-em="2048" ascent="1632" descent="-416" />
<missing-glyph horiz-adv-x="520" />
<glyph horiz-adv-x="0" vert-adv-y="0" />
<glyph horiz-adv-x="682" />
<glyph unicode=" "  horiz-adv-x="520" />
<glyph unicode="&#x09;" horiz-adv-x="520" />
<glyph unicode="&#xa0;" horiz-adv-x="520" />
<glyph unicode="!" horiz-adv-x="584" d="M128 -136v320h328v-320h-328zM128 400v1152h328v-1152h-328z" />
<glyph unicode="&#x22;" horiz-adv-x="808" d="M88 1024l40 528h240l-48 -528h-232zM448 1024l40 528h240l-40 -528h-240z" />
<glyph unicode="#" horiz-adv-x="1600" d="M32 328l72 224h224l64 208q24 144 -56 152h-176l72 224h256l120 416h264l-120 -416h296l120 416h264l-120 -416h272l-80 -224h-248l-96 -360h280l-64 -224h-280l-120 -432h-272l80 280q32 136 -48 152h-208l-136 -432h-264l88 288q24 136 -56 144h-128zM592 552h304 l56 208q24 144 -56 152h-200z" />
<glyph unicode="$" horiz-adv-x="1248" d="M104 -104v272h464v408h-176q-280 8 -288 272v416q8 280 280 288h184v136h112v-136h464v-288h-464v-392h168q288 -8 296 -296v-440q-16 -232 -280 -240h-184v-184h-112v184h-464zM424 872h144v392h-144v-392zM680 168h144v296q-8 112 -144 120v-416z" />
<glyph unicode="%" horiz-adv-x="2032" d="M56 952v384q8 208 224 216h336q216 -8 224 -216v-384q-8 -216 -224 -224h-328q-224 8 -232 224zM312 952h280v256q-16 112 -152 128h-128v-384zM440 -104l872 1656h304l-872 -1656h-304zM1184 96v384q16 208 224 224h344q208 -16 224 -224v-384q-16 -184 -224 -200h-344 q-208 8 -224 200zM1440 104h280v256q-8 112 -152 120h-128v-376z" />
<glyph unicode="&#x26;" horiz-adv-x="1528" d="M72 176v272q8 176 216 312q-96 136 -96 256v240q0 296 296 296h304q296 -8 304 -272v-200q-8 -256 -352 -416l64 -64l200 -216q0 16 8 40v32v224h312v-240q0 -176 -80 -312l232 -232h-400l-48 56q-120 -56 -272 -56h-328q-360 0 -360 280zM392 168h416l-224 240 q-64 64 -112 120q-80 -72 -80 -136v-224zM496 1048q0 -56 72 -168q208 80 216 224v80q-8 112 -128 120h-160v-256z" />
<glyph unicode="'" horiz-adv-x="448" d="M88 1024l40 528h240l-40 -528h-240z" />
<glyph unicode="(" horiz-adv-x="680" d="M120 272v856q0 224 160 424h312q-168 -184 -168 -424v-848q8 -200 168 -384h-312q-160 168 -160 376z" />
<glyph unicode=")" horiz-adv-x="680" d="M88 -104q168 184 168 392v840q-8 208 -168 424h312q160 -208 160 -424v-840q0 -216 -168 -392h-304z" />
<glyph unicode="*" horiz-adv-x="968" d="M88 1064l376 88l-376 104l128 240l256 -328l-112 384h264l-128 -384l272 320l120 -240l-376 -96l376 -96l-128 -240l-264 320l128 -384h-272l120 384l-256 -312z" />
<glyph unicode="+" horiz-adv-x="936" d="M72 544v232h272v328h248v-328h272v-232h-272v-336h-248v336h-272z" />
<glyph unicode="," horiz-adv-x="568" d="M72 -104v392h424v-328q-8 -360 -424 -440v200q184 32 216 176h-216z" />
<glyph unicode="-" horiz-adv-x="712" d="M56 544v232h600v-232h-600z" />
<glyph unicode="." horiz-adv-x="560" d="M72 -104v392h424v-392h-424z" />
<glyph unicode="/" horiz-adv-x="1312" d="M64 -104l880 1656h304l-872 -1656h-312z" />
<glyph unicode="0" horiz-adv-x="1344" d="M120 256v904q16 376 400 392h312q368 -24 392 -376v-896q-8 -376 -392 -384h-320q-376 16 -392 360zM440 304q8 -128 136 -136h176q144 8 152 144v816q-8 128 -144 136h-184q-128 -8 -136 -136v-824z" />
<glyph unicode="1" horiz-adv-x="1336" d="M504 -104v1656h328v-1656h-328z" />
<glyph unicode="2" horiz-adv-x="1336" d="M152 -104v680q16 264 296 280h416v232q-16 168 -208 176h-504v288h712q312 -8 320 -288v-432q-16 -248 -280 -264h-432v-400h712v-272h-1032z" />
<glyph unicode="3" horiz-adv-x="1336" d="M136 -104v272h720v240q-24 152 -216 168h-344v288h560v224q-24 160 -224 176h-496v288h728q304 -8 312 -288v-280q0 -176 -184 -272q176 -72 184 -272v-296q-8 -240 -280 -248h-760z" />
<glyph unicode="4" horiz-adv-x="1344" d="M80 552q0 32 24 112l256 888h320l-264 -912h360v912h320v-912h136v-288h-136v-456h-320v320q-24 120 -224 136h-216q-264 0 -256 200z" />
<glyph unicode="5" horiz-adv-x="1336" d="M152 -104v272h704v280q-24 168 -224 184h-480v920h1024v-288h-704v-344h376q312 -8 328 -296v-432q-8 -288 -344 -296h-680z" />
<glyph unicode="6" horiz-adv-x="1344" d="M112 192v984q0 376 376 376h680v-288h-736v-344h472q320 -8 328 -328v-400q-16 -280 -336 -296h-480q-296 8 -304 296zM432 168h480v288q-16 160 -216 176h-264v-464z" />
<glyph unicode="7" horiz-adv-x="1344" d="M120 1264v288h824q256 -8 264 -216q0 -48 -32 -128l-456 -1312h-344l488 1368h-744z" />
<glyph unicode="8" horiz-adv-x="1336" d="M104 184v280q8 184 168 264q-168 72 -168 264v248q16 296 312 312h520q280 -24 296 -304v-256q0 -168 -160 -264q160 -88 160 -264v-280q8 -288 -336 -288h-456q-344 0 -336 288zM424 168h488v256q-16 144 -208 160h-280v-416zM424 880h488v216q-16 160 -208 168h-280 v-384z" />
<glyph unicode="9" horiz-adv-x="1344" d="M104 776v432q16 328 336 344h440q352 -16 360 -336v-992q0 -328 -376 -328h-664v272h720v344h-520q-296 0 -296 264zM424 800h496v272q-24 176 -248 192h-248v-464z" />
<glyph unicode=":" horiz-adv-x="600" d="M88 -144v392h424v-392h-424zM88 576v408h424v-408h-424z" />
<glyph unicode=";" horiz-adv-x="600" d="M88 -80v344h424v-272q0 -376 -424 -488v208q184 48 216 208h-216zM88 576v408h424v-408h-424z" />
<glyph unicode="&#x3c;" horiz-adv-x="792" d="M56 648l328 520h336l-336 -512l336 -528h-336z" />
<glyph unicode="=" horiz-adv-x="848" d="M56 256v256h736v-256h-736zM56 792v256h736v-256h-736z" />
<glyph unicode="&#x3e;" horiz-adv-x="792" d="M72 128l336 528l-336 512h336l328 -512l-328 -528h-336z" />
<glyph unicode="?" horiz-adv-x="1192" d="M56 1264v288h696q328 -8 344 -304v-424q-16 -240 -280 -256h-184v-216h-320v256q16 232 240 248h224v224q-24 168 -240 184h-480zM312 -104v296h320v-296h-320z" />
<glyph unicode="@" horiz-adv-x="1736" d="M128 176v1056q8 320 320 320h872q312 -16 328 -312v-704q-8 -248 -256 -256h-640q-184 0 -192 160v208q8 176 184 184h280v144h-448v192h440q192 -16 208 -192v-504h168v664q-24 176 -240 192h-768v-1216h1024v-216h-944q-336 0 -336 280zM760 472h264v88q-16 80 -128 88 h-136v-176z" />
<glyph unicode="A" horiz-adv-x="1408" d="M0 -104l488 1656h424l488 -1656h-328l-80 240q-64 152 -248 168h-296l-112 -408h-336zM520 592h368l-184 648z" />
<glyph unicode="B" horiz-adv-x="1344" d="M104 -104v1656h800q328 -8 336 -304v-256q0 -184 -168 -272q168 -96 168 -272v-280q-16 -256 -304 -272h-832zM424 168h496v240q-24 152 -224 176h-272v-416zM424 872h496v224q-24 152 -232 168h-264v-392z" />
<glyph unicode="C" horiz-adv-x="1216" d="M104 216v992q0 344 360 344h688v-288h-472q-232 -16 -256 -232v-864h728v-272h-704q-344 0 -344 320z" />
<glyph unicode="D" horiz-adv-x="1368" d="M104 -104v1656h768q376 -24 392 -352v-1000q-16 -288 -336 -304h-824zM424 168h520v872q-24 200 -264 224h-256v-1096z" />
<glyph unicode="E" horiz-adv-x="1232" d="M104 160v1064q16 312 320 328h728v-288h-520q-184 -16 -208 -184v-208h680v-296h-680v-408h728v-272h-744q-304 0 -304 264z" />
<glyph unicode="F" horiz-adv-x="1200" d="M104 -104v1312q8 336 360 344h680v-288h-496q-200 -16 -224 -184v-216h680v-288h-680v-680h-320z" />
<glyph unicode="G" horiz-adv-x="1344" d="M104 192v1000v15q0 345 368 345h16h672v-288h-504q-208 -16 -232 -200v-896h496v208q-16 136 -168 144h-96v288h320q248 -16 264 -264v-344q0 -304 -336 -304h-464q-328 0 -336 296z" />
<glyph unicode="H" horiz-adv-x="1376" d="M104 -104v1656h320v-688h528v688h320v-1656h-320v496q-24 168 -264 184h-264v-680h-320z" />
<glyph unicode="I" horiz-adv-x="544" d="M112 -104v1656h328v-1656h-328z" />
<glyph unicode="J" horiz-adv-x="720" d="M40 -104v272h152q112 0 112 112v1272h320v-1344q-16 -296 -368 -312h-216z" />
<glyph unicode="K" horiz-adv-x="1344" d="M104 -104v1656h320v-656l472 656h384l-608 -824l640 -832h-384l-504 648v-448q-16 -184 -200 -200h-120z" />
<glyph unicode="L" horiz-adv-x="1176" d="M104 224v1328h320v-1272q0 -112 112 -112h600v-272h-680q-352 0 -352 328z" />
<glyph unicode="M" horiz-adv-x="1808" d="M104 -104v1656h320q232 -16 288 -248l192 -992l192 984q64 240 288 256h320v-1656h-320v1256l-280 -1256h-400l-280 1256v-1256h-320z" />
<glyph unicode="N" horiz-adv-x="1360" d="M104 -104v1656h304q224 -16 296 -264l240 -1040v1304h312v-1656h-304q-224 8 -280 224l-248 1056v-1280h-320z" />
<glyph unicode="O" horiz-adv-x="1328" d="M104 200v1016q8 328 360 336h408q336 -16 352 -336v-1016q0 -304 -352 -304h-408q-360 0 -360 304zM424 168h480v872q-16 208 -248 224h-232v-1096z" />
<glyph unicode="P" horiz-adv-x="1296" d="M104 -104v1656h800q320 -16 336 -312v-456q-16 -272 -312 -288h-504v-600h-320zM424 784h496v280q-16 184 -240 200h-256v-480z" />
<glyph unicode="Q" horiz-adv-x="1336" d="M104 184v1024q0 344 352 344h416q344 -8 352 -344v-1008q0 -256 -248 -288l232 -272h-368l-216 256h-192q-328 0 -328 288zM424 176h480v880q-24 184 -248 208h-232v-1088z" />
<glyph unicode="R" horiz-adv-x="1336" d="M104 -104v1656h792q320 -8 328 -288v-432q-8 -256 -264 -272h-120l424 -664h-384l-392 664h-64v-664h-320zM424 832h480v256q-16 160 -232 176h-248v-432z" />
<glyph unicode="S" horiz-adv-x="1200" d="M88 840v432q8 280 320 280h704v-288h-704v-400h392q304 -8 312 -288v-400q-8 -272 -336 -280h-680v272h696v224q-16 168 -248 184h-160q-296 0 -296 264z" />
<glyph unicode="T" horiz-adv-x="1072" d="M24 1264v288h1032v-288h-344v-1368h-344v1152q-16 200 -256 216h-88z" />
<glyph unicode="U" horiz-adv-x="1360" d="M104 232v1320h320v-1256q0 -120 136 -128h240q144 0 144 136v1248h312v-1320q0 -336 -360 -336h-440q-352 0 -352 336z" />
<glyph unicode="V" horiz-adv-x="1408" d="M8 1552h352l344 -1264l344 1264h360l-496 -1656h-416z" />
<glyph unicode="W" horiz-adv-x="1832" d="M8 1552h344l176 -1232l176 1232h424l184 -1232l168 1232h344l-296 -1656h-224q-200 16 -248 216l-136 1048l-152 -1040q-40 -200 -232 -224h-224z" />
<glyph unicode="X" horiz-adv-x="1424" d="M24 -104l504 840l-480 816h400l264 -504l272 504h392l-480 -816l504 -840h-392l-296 544l-296 -544h-392z" />
<glyph unicode="Y" horiz-adv-x="1416" d="M16 1552h224q152 -8 224 -152l248 -528v-8l248 536q64 144 224 152h224l-536 -1016v-640h-320v640z" />
<glyph unicode="Z" horiz-adv-x="1216" d="M80 -104v256l672 1112h-672v288h1024v-272l-664 -1112h696v-96q-24 -152 -208 -176h-848z" />
<glyph unicode="[" horiz-adv-x="552" d="M104 -104v1656h400v-168h-96v-1328h96v-160h-400z" />
<glyph unicode="\" horiz-adv-x="928" d="M96 1552h256l488 -1656h-264z" />
<glyph unicode="]" horiz-adv-x="552" d="M56 56h96v1328h-96v168h400v-1656h-400v160z" />
<glyph unicode="^" horiz-adv-x="1208" d="M96 592l512 976l504 -976h-272l-232 512l-232 -512h-280z" />
<glyph unicode="_" horiz-adv-x="912" d="M16 -464h888v-176h-888v176z" />
<glyph unicode="`" horiz-adv-x="472" d="M32 1552h272l144 -288h-264z" />
<glyph unicode="a" horiz-adv-x="1208" d="M104 120v288v14q0 250 272 250h408v168h-672v288h712q272 -8 280 -272v-960h-200l-120 264v120q0 112 -152 112h-208v-232h360l-112 -264h-304q-264 0 -264 224z" />
<glyph unicode="b" horiz-adv-x="1216" d="M104 176v1376h320v-424h376q304 -8 312 -296v-648q-16 -272 -296 -288h-416q-288 8 -296 280zM424 168h368v496q-24 152 -200 176h-168v-672z" />
<glyph unicode="c" horiz-adv-x="976" d="M104 168v656q16 288 280 304h520v-288h-288q-168 -24 -192 -208v-464h480v-272h-488q-304 0 -312 272z" />
<glyph unicode="d" horiz-adv-x="1216" d="M104 160v640q0 328 304 328h384v424h312v-1368q-8 -280 -304 -288h-392q-304 0 -304 264zM416 168h376v496q-24 152 -224 176h-152v-672z" />
<glyph unicode="e" horiz-adv-x="1184" d="M104 136v680q8 304 296 312h392q296 -8 304 -288v-472h-672v-200h672v-272h-688q-296 8 -304 240zM424 632h360v96q-16 136 -200 144h-160v-240z" />
<glyph unicode="f" horiz-adv-x="784" d="M56 840v288h152v144q0 280 272 280h256v-216h-120q-80 -8 -88 -104v-104h184v-288h-184v-944h-320v944h-152z" />
<glyph unicode="g" horiz-adv-x="1216" d="M112 136v688q8 296 288 304h416q280 -16 296 -288v-1112q-8 -304 -304 -312h-696v288h680v72q-16 112 -216 120h-168q-288 8 -296 240zM432 168h360v528q-16 136 -208 144h-152v-672z" />
<glyph unicode="h" horiz-adv-x="1200" d="M104 -104v1656h320v-424h352q304 -24 320 -304v-928h-312v776q-24 152 -232 168h-128v-944h-320z" />
<glyph unicode="i" horiz-adv-x="544" d="M112 -104v1232h328v-1232h-328zM112 1264v288h328v-288h-328z" />
<glyph unicode="j" horiz-adv-x="544" d="M-80 -296h80q128 0 128 104v1320h320v-1392q-8 -312 -336 -320h-192v288zM128 1264v288h320v-288h-320z" />
<glyph unicode="k" horiz-adv-x="1208" d="M104 -104v1656h320v-880l320 456h384l-424 -600l456 -632h-384l-352 480v-280q-16 -176 -184 -200h-136z" />
<glyph unicode="l" horiz-adv-x="544" d="M112 -104v1656h328v-1656h-328z" />
<glyph unicode="m" horiz-adv-x="1736" d="M104 -104v952q8 272 288 280h232q200 -16 248 -168q72 160 240 168h240q272 -16 288 -280v-952h-320v800q-16 128 -168 144h-120v-944h-320v800q-16 128 -160 144h-128v-944h-320z" />
<glyph unicode="n" horiz-adv-x="1232" d="M104 -104v944q0 288 304 288h424q288 -8 296 -296v-936h-320v752q-24 168 -216 192h-168v-944h-320z" />
<glyph unicode="o" horiz-adv-x="1216" d="M112 152v696q0 280 296 280h408q288 -8 296 -296v-672q-8 -256 -296 -264h-416q-288 0 -288 256zM432 168h360v512q-8 152 -208 160h-152v-672z" />
<glyph unicode="p" horiz-adv-x="1208" d="M104 -584v1416q8 288 296 296h400q296 -8 304 -304v-672q-8 -248 -288 -256h-392v-480h-320zM424 168h360v504q-16 152 -200 168h-160v-672z" />
<glyph unicode="q" horiz-adv-x="1208" d="M104 144v696q0 280 280 288h432q280 -8 288 -288v-1424h-320v480h-400q-272 8 -280 248zM424 168h360v512q-16 144 -216 160h-144v-672z" />
<glyph unicode="r" horiz-adv-x="736" d="M104 -104v928q0 304 328 304h240v-288h-128q-112 -8 -120 -120v-824h-320z" />
<glyph unicode="s" horiz-adv-x="1176" d="M104 -104v272h648v64q-16 120 -184 128h-216q-240 8 -248 216v320q0 232 256 232h712v-288h-648v-192h376q264 -8 272 -256v-272q0 -224 -272 -224h-696z" />
<glyph unicode="t" horiz-adv-x="840" d="M48 840v288h216v424h320v-424h216v-288h-216v-944h-320v712q-16 216 -216 232z" />
<glyph unicode="u" horiz-adv-x="1208" d="M104 144v984h320v-864q0 -96 96 -96h168q96 8 104 96v864h320v-984q-8 -240 -280 -248h-456h-17q-256 0 -255 234v14z" />
<glyph unicode="v" horiz-adv-x="1216" d="M16 1128h352l240 -880l240 880h360l-424 -1232h-344z" />
<glyph unicode="w" horiz-adv-x="1576" d="M16 1128h336l104 -912l160 912h336l168 -912l104 912h336l-256 -1232h-152q-192 0 -248 232l-120 616l-112 -616q-48 -232 -248 -232h-152z" />
<glyph unicode="x" horiz-adv-x="1168" d="M8 -104l408 616l-368 616h360l168 -368l192 368h352l-368 -616l408 -616h-352l-232 360l-208 -360h-360z" />
<glyph unicode="y" horiz-adv-x="1200" d="M104 136v992h320v-960h360v960h312v-1448q-8 -256 -272 -264h-720v288h680v56q-16 128 -208 136h-176h-19q-277 0 -277 227v13z" />
<glyph unicode="z" horiz-adv-x="1208" d="M104 -104v264l584 680h-576v288h968v-280l-592 -680h616v-96q-24 -160 -192 -176h-808z" />
<glyph unicode="{" horiz-adv-x="744" d="M128 720q88 88 88 248v360q8 216 208 224h256v-72h-48q-112 0 -112 -136v-344q0 -200 -184 -280q192 -96 184 -280v-376q8 -96 104 -96h56v-72h-256q-200 0 -208 184v400q0 152 -88 240z" />
<glyph unicode="|" horiz-adv-x="704" d="M208 -104v1656h296v-1656h-296z" />
<glyph unicode="}" horiz-adv-x="744" d="M72 -32h48q104 0 104 96v360q8 200 176 296q-176 48 -176 248v376q0 136 -112 136h-40v72h248q200 -8 208 -200v-424q0 -128 72 -208q-72 -88 -72 -224v-416q-16 -176 -216 -184h-240v72z" />
<glyph unicode="~" horiz-adv-x="1080" d="M88 528v56q8 320 248 320q80 0 160 -48q136 -80 216 -80q104 0 104 88v48h184v-64q0 -312 -232 -312q-104 0 -176 40l-48 24q-120 64 -176 64q-88 -8 -96 -96v-40h-184z" />
<glyph unicode="&#xa4;" d="M440 1048l184 176l120 -136q120 80 288 80q136 0 256 -72l128 128l184 -176l-136 -128q80 -112 80 -256t-80 -264l128 -128l-176 -168l-128 120q-120 -64 -256 -64q-152 0 -272 72l-128 -136l-184 176l136 128q-72 120 -80 264q0 112 72 256zM752 664q16 -272 264 -288 q272 16 280 288q-16 272 -272 288q-256 -16 -272 -288z" />
<glyph unicode="&#xa7;" d="M520 -48v256h664v48q0 120 -136 120h-280q-240 8 -248 216v728q8 224 256 232h712v-272h-656v-168h384q264 -8 272 -248v-440v-16v-232q0 -232 -272 -224h-696zM832 648h352v56q-8 128 -136 136h-216v-192z" />
<glyph unicode="&#xa8;" d="M656 1224v280h288v-280h-288zM1104 1224v280h288v-280h-288z" />
<glyph unicode="&#xad;" horiz-adv-x="712" d="M56 544v232h600v-232h-600z" />
<glyph unicode="&#xb0;" d="M144 1128v272q8 152 160 160h264q152 -8 160 -168v-272q0 -144 -168 -144h-264q-152 8 -152 152zM328 1136h216v168q-8 80 -88 88h-128v-256z" />
<glyph unicode="&#xb1;" d="M528 112v232h992v-232h-992zM528 736v232h368v296h256v-296h368v-232h-368v-288h-256v288h-368z" />
<glyph unicode="&#xb7;" d="M744 720q24 256 280 280q256 -24 280 -280q-24 -256 -280 -280q-256 24 -280 280z" />
<glyph unicode="&#xd7;" d="M528 336l320 312l-320 320l176 176l320 -320l304 328l192 -160l-320 -336l320 -320l-176 -176l-320 320l-320 -320z" />
<glyph unicode="&#xe0;" d="M528 128v752q16 240 256 248h232q112 -8 192 -88v88h312v-1232h-312v120q-96 -120 -216 -120h-208q-248 0 -256 232zM760 1504h344l192 -280h-232zM848 176h360v488q-16 160 -176 176h-184v-664z" />
<glyph unicode="&#xe1;" d="M528 128v752q16 240 256 248h232q112 -8 192 -88v88h312v-1232h-312v120q-96 -120 -216 -120h-208q-248 0 -256 232zM760 1224l312 280h224l-192 -280h-344zM848 176h360v488q-16 160 -176 176h-184v-664z" />
<glyph unicode="&#xe8;" d="M528 144v672q8 304 296 312h392q296 -8 304 -280v-480h-672v-192h672v-280h-688q-296 8 -304 248zM760 1504h344l192 -280h-232zM848 632h352v96q-16 136 -192 144h-160v-240z" />
<glyph unicode="&#xe9;" d="M528 144v672q8 304 296 312h392q296 -8 304 -280v-480h-672v-192h672v-280h-688q-296 8 -304 248zM760 1224l312 280h224l-192 -280h-344zM848 632h352v96q-16 136 -192 144h-160v-240z" />
<glyph unicode="&#xea;" d="M528 144v672q8 304 296 312h392q296 -8 304 -280v-480h-672v-192h672v-280h-688q-296 8 -304 248zM664 1224l224 280h272l224 -280h-256l-104 160l-104 -160h-256zM848 632h352v96q-16 136 -192 144h-160v-240z" />
<glyph unicode="&#xec;" d="M760 1504h344l192 -280h-232zM864 -104v1232h320v-1232h-320z" />
<glyph unicode="&#xed;" d="M760 1224l312 280h224l-192 -280h-344zM864 -104v1232h320v-1232h-320z" />
<glyph unicode="&#xf2;" d="M528 152v696q0 280 288 280h408q288 -8 296 -288v-672q0 -272 -288 -272h-416q-288 0 -288 256zM760 1504h344l192 -280h-232zM840 176h368v504q-16 144 -208 160h-160v-664z" />
<glyph unicode="&#xf3;" d="M528 152v696q0 280 288 280h408q288 -8 296 -288v-672q0 -272 -288 -272h-416q-288 0 -288 256zM760 1224l312 280h224l-192 -280h-344zM840 176h368v504q-16 144 -208 160h-160v-664z" />
<glyph unicode="&#xf7;" d="M528 536v232h992v-232h-992zM888 144v248h272v-248h-272zM888 896v248h272v-248h-272z" />
<glyph unicode="&#xf9;" d="M520 144v984h320v-864q0 -88 96 -88h168q104 0 104 96v856h320v-976q0 -256 -280 -256h-456q-272 0 -272 248zM760 1504h344l192 -280h-232z" />
<glyph unicode="&#xfa;" d="M520 144v984h320v-864q0 -88 96 -88h168q104 0 104 96v856h320v-976q0 -256 -280 -256h-456q-272 0 -272 248zM760 1224l312 280h224l-192 -280h-344z" />
<glyph unicode="&#xfc;" d="M520 144v984h320v-864q0 -88 96 -88h168q104 0 104 96v856h320v-976q0 -256 -280 -256h-456q-272 0 -272 248zM728 1176v184h224v-184h-224zM1096 1176v184h224v-184h-224z" />
<glyph unicode="&#x2000;" horiz-adv-x="856" vert-adv-y="0" />
<glyph unicode="&#x2001;" horiz-adv-x="1712" vert-adv-y="0" />
<glyph unicode="&#x2002;" horiz-adv-x="856" vert-adv-y="0" />
<glyph unicode="&#x2003;" horiz-adv-x="1712" vert-adv-y="0" />
<glyph unicode="&#x2004;" horiz-adv-x="570" vert-adv-y="0" />
<glyph unicode="&#x2005;" horiz-adv-x="428" vert-adv-y="0" />
<glyph unicode="&#x2006;" horiz-adv-x="285" vert-adv-y="0" />
<glyph unicode="&#x2007;" horiz-adv-x="285" vert-adv-y="0" />
<glyph unicode="&#x2008;" horiz-adv-x="214" vert-adv-y="0" />
<glyph unicode="&#x2009;" horiz-adv-x="342" vert-adv-y="0" />
<glyph unicode="&#x200a;" horiz-adv-x="95" vert-adv-y="0" />
<glyph unicode="&#x2010;" horiz-adv-x="712" d="M56 544v232h600v-232h-600z" />
<glyph unicode="&#x2011;" horiz-adv-x="712" d="M56 544v232h600v-232h-600z" />
<glyph unicode="&#x2012;" horiz-adv-x="712" d="M56 544v232h600v-232h-600z" />
<glyph unicode="&#x2013;" horiz-adv-x="1136" d="M56 544v232h1024v-232h-1024z" />
<glyph unicode="&#x2014;" d="M0 528v392h2048v-392h-2048z" />
<glyph unicode="&#x2018;" d="M1256 1208q16 256 256 504h256v-8q-152 -136 -200 -288q8 -32 16 -32q224 -24 232 -232q-16 -240 -264 -256q-288 8 -296 312z" />
<glyph unicode="&#x2019;" d="M232 1448q16 248 264 264q288 -8 296 -312q-24 -272 -256 -504h-256v8q160 144 200 288q-8 32 -16 32q-216 16 -232 224z" />
<glyph unicode="&#x201c;" d="M1072 1240q32 304 160 424h248v-24q-144 -144 -152 -240q168 -48 176 -216q-16 -208 -232 -216q-192 16 -200 272zM1568 1240q32 304 160 424h248v-24q-144 -144 -152 -240q168 -48 176 -216q-16 -208 -232 -216q-192 16 -200 272z" />
<glyph unicode="&#x201d;" d="M48 1448q16 208 232 216q192 -8 200 -272q-32 -304 -160 -424h-248v24q144 144 152 240q-168 48 -176 216zM544 1448q16 208 232 216q192 -8 200 -272q-32 -304 -160 -424h-248v24q144 144 152 240q-168 48 -176 216z" />
<glyph unicode="&#x2026;" d="M168 712q16 176 192 192q184 -16 200 -192q-16 -184 -200 -200q-176 16 -192 200zM824 728q16 176 192 192q184 -16 200 -192q-16 -184 -200 -200q-176 16 -192 200zM1496 728q16 176 192 192q184 -16 200 -192q-16 -184 -200 -200q-176 16 -192 200z" />
<glyph unicode="&#x202f;" horiz-adv-x="342" vert-adv-y="0" />
<glyph unicode="&#x205f;" horiz-adv-x="428" vert-adv-y="0" />
<glyph unicode="&#x20ac;" horiz-adv-x="1584" d="M72 392l56 240h248v168h-304l56 248h248v160q0 344 360 344h728v-288h-512q-224 -16 -256 -216h560l-48 -248h-512v-168h456l-56 -240h-400v-224h768v-272h-744q-344 0 -344 320v176h-304z" />
<glyph unicode="&#x25fc;" horiz-adv-x="1120" vert-adv-y="2240" d="M0 0v1120h1120v-1120h-1120z" />
</font>
</defs>
</svg>
